<?xml version="1.0" encoding="UTF-8"?>
<svg xmlns="http://www.w3.org/2000/svg" xmlns:xlink="http://www.w3.org/1999/xlink" viewBox="0 0 50 50" width="50px" height="50px">
<g id="surface60604090">
<path style=" stroke:none;fill-rule:nonzero;fill:#7a7a7a;fill-opacity:1;" d="M 34.21875 5.664062 C 28.238281 5.664062 23.375 10.527344 23.375 16.507812 C 23.375 16.867188 23.464844 17.21875 23.5 17.570312 C 16.105469 16.863281 9.566406 13.300781 5.125 7.851562 C 4.917969 7.589844 4.597656 7.449219 4.261719 7.472656 C 3.929688 7.496094 3.632812 7.6875 3.46875 7.976562 C 2.535156 9.582031 2 11.429688 2 13.414062 C 2 15.816406 2.859375 18.015625 4.1875 19.820312 C 3.929688 19.707031 3.648438 19.644531 3.40625 19.507812 C 3.097656 19.34375 2.726562 19.351562 2.425781 19.53125 C 2.125 19.710938 1.941406 20.035156 1.9375 20.382812 L 1.9375 20.507812 C 1.9375 24.191406 3.84375 27.390625 6.65625 29.351562 C 6.625 29.347656 6.59375 29.359375 6.5625 29.351562 C 6.21875 29.292969 5.871094 29.414062 5.640625 29.675781 C 5.410156 29.9375 5.335938 30.300781 5.4375 30.632812 C 6.554688 34.105469 9.40625 36.757812 12.9375 37.726562 C 10.125 39.398438 6.863281 40.382812 3.34375 40.382812 C 2.582031 40.382812 1.851562 40.34375 1.125 40.257812 C 0.65625 40.195312 0.207031 40.46875 0.0507812 40.914062 C -0.109375 41.359375 0.0664062 41.855469 0.46875 42.101562 C 4.980469 44.996094 10.335938 46.695312 16.09375 46.695312 C 25.425781 46.695312 32.746094 42.796875 37.65625 37.226562 C 42.566406 31.65625 45.125 24.421875 45.125 17.664062 C 45.125 17.378906 45.101562 17.101562 45.09375 16.820312 C 46.925781 15.417969 48.5625 13.773438 49.84375 11.851562 C 50.097656 11.480469 50.070312 10.984375 49.777344 10.640625 C 49.488281 10.296875 49 10.191406 48.59375 10.382812 C 48.078125 10.613281 47.476562 10.636719 46.9375 10.820312 C 47.648438 9.871094 48.257812 8.847656 48.625 7.695312 C 48.75 7.300781 48.613281 6.867188 48.289062 6.609375 C 47.964844 6.355469 47.511719 6.324219 47.15625 6.539062 C 45.449219 7.550781 43.558594 8.261719 41.5625 8.695312 C 39.625 6.882812 37.074219 5.664062 34.21875 5.664062 Z M 34.21875 7.664062 C 36.769531 7.664062 39.074219 8.753906 40.6875 10.476562 C 40.929688 10.726562 41.285156 10.832031 41.625 10.757812 C 42.929688 10.5 44.167969 10.121094 45.375 9.632812 C 44.679688 10.570312 43.820312 11.371094 42.8125 11.976562 C 42.355469 12.199219 42.140625 12.726562 42.308594 13.207031 C 42.472656 13.683594 42.972656 13.960938 43.46875 13.851562 C 44.46875 13.730469 45.359375 13.324219 46.3125 13.070312 C 45.457031 13.996094 44.519531 14.832031 43.5 15.570312 C 43.222656 15.773438 43.070312 16.101562 43.09375 16.445312 C 43.109375 16.851562 43.125 17.253906 43.125 17.664062 C 43.125 23.914062 40.726562 30.699219 36.15625 35.882812 C 31.585938 41.066406 24.875 44.695312 16.09375 44.695312 C 12.105469 44.695312 8.339844 43.8125 4.9375 42.257812 C 9.15625 41.933594 13.046875 40.441406 16.1875 37.976562 C 16.515625 37.714844 16.644531 37.277344 16.511719 36.878906 C 16.378906 36.480469 16.011719 36.207031 15.59375 36.195312 C 12.296875 36.136719 9.535156 34.21875 8.0625 31.507812 C 8.117188 31.507812 8.164062 31.507812 8.21875 31.507812 C 9.207031 31.507812 10.183594 31.382812 11.09375 31.132812 C 11.53125 31.003906 11.832031 30.597656 11.816406 30.140625 C 11.800781 29.683594 11.476562 29.292969 11.03125 29.195312 C 7.472656 28.476562 4.804688 25.578125 4.1875 21.976562 C 5.195312 22.324219 6.226562 22.597656 7.34375 22.632812 C 7.800781 22.660156 8.214844 22.375 8.355469 21.941406 C 8.496094 21.507812 8.324219 21.03125 7.9375 20.789062 C 5.5625 19.199219 4 16.492188 4 13.414062 C 4 12.273438 4.296875 11.226562 4.6875 10.226562 C 9.6875 15.714844 16.6875 19.359375 24.59375 19.757812 C 24.90625 19.773438 25.210938 19.644531 25.414062 19.40625 C 25.617188 19.164062 25.695312 18.84375 25.625 18.539062 C 25.472656 17.890625 25.375 17.203125 25.375 16.507812 C 25.375 11.609375 29.320312 7.664062 34.21875 7.664062 Z M 34.21875 7.664062 "/>
</g>
</svg>
