<?xml version="1.0" encoding="UTF-8"?>
<svg xmlns="http://www.w3.org/2000/svg" xmlns:xlink="http://www.w3.org/1999/xlink" viewBox="0 0 50 50" width="50px" height="50px">
<g id="surface60540192">
<path style=" stroke:none;fill-rule:nonzero;fill:#7a7a7a;fill-opacity:1;" d="M 9 4.195312 C 6.25 4.195312 4 6.445312 4 9.195312 L 4 41.195312 C 4 43.945312 6.25 46.195312 9 46.195312 L 25.832031 46.195312 C 25.941406 46.214844 26.050781 46.214844 26.15625 46.195312 L 31.832031 46.195312 C 31.941406 46.214844 32.050781 46.214844 32.15625 46.195312 L 41 46.195312 C 43.75 46.195312 46 43.945312 46 41.195312 L 46 9.195312 C 46 6.445312 43.75 4.195312 41 4.195312 Z M 9 6.195312 L 41 6.195312 C 42.667969 6.195312 44 7.527344 44 9.195312 L 44 41.195312 C 44 42.863281 42.667969 44.195312 41 44.195312 L 33 44.195312 L 33 30.195312 L 36.820312 30.195312 L 38.21875 23.195312 L 33 23.195312 L 33 21.195312 C 33 20.636719 33.054688 20.59375 33.238281 20.472656 C 33.425781 20.351562 34.003906 20.195312 35 20.195312 L 38 20.195312 L 38 14.5625 L 37.429688 14.292969 C 37.429688 14.292969 35.132812 13.195312 32 13.195312 C 29.75 13.195312 27.902344 14.089844 26.71875 15.570312 C 25.535156 17.050781 25 19.027344 25 21.195312 L 25 23.195312 L 22 23.195312 L 22 30.195312 L 25 30.195312 L 25 44.195312 L 9 44.195312 C 7.332031 44.195312 6 42.863281 6 41.195312 L 6 9.195312 C 6 7.527344 7.332031 6.195312 9 6.195312 Z M 32 15.195312 C 34.078125 15.195312 35.386719 15.652344 36 15.894531 L 36 18.195312 L 35 18.195312 C 33.847656 18.195312 32.925781 18.289062 32.148438 18.792969 C 31.375 19.300781 31 20.257812 31 21.195312 L 31 25.195312 L 35.78125 25.195312 L 35.179688 28.195312 L 31 28.195312 L 31 44.195312 L 27 44.195312 L 27 28.195312 L 24 28.195312 L 24 25.195312 L 27 25.195312 L 27 21.195312 C 27 19.363281 27.464844 17.839844 28.28125 16.820312 C 29.097656 15.800781 30.25 15.195312 32 15.195312 Z M 32 15.195312 "/>
</g>
</svg>
