<?xml version="1.0" encoding="UTF-8"?>
<svg xmlns="http://www.w3.org/2000/svg" xmlns:xlink="http://www.w3.org/1999/xlink" viewBox="0 0 50 50" width="50px" height="50px">
<g id="surface60692996">
<path style=" stroke:none;fill-rule:nonzero;fill:#7a7a7a;fill-opacity:1;" d="M 16 3.195312 C 8.832031 3.195312 3 9.027344 3 16.195312 L 3 34.195312 C 3 41.363281 8.832031 47.195312 16 47.195312 L 34 47.195312 C 41.167969 47.195312 47 41.363281 47 34.195312 L 47 16.195312 C 47 9.027344 41.167969 3.195312 34 3.195312 Z M 16 5.195312 L 34 5.195312 C 40.085938 5.195312 45 10.109375 45 16.195312 L 45 34.195312 C 45 40.28125 40.085938 45.195312 34 45.195312 L 16 45.195312 C 9.914062 45.195312 5 40.28125 5 34.195312 L 5 16.195312 C 5 10.109375 9.914062 5.195312 16 5.195312 Z M 37 11.195312 C 35.894531 11.195312 35 12.089844 35 13.195312 C 35 14.300781 35.894531 15.195312 37 15.195312 C 38.105469 15.195312 39 14.300781 39 13.195312 C 39 12.089844 38.105469 11.195312 37 11.195312 Z M 25 14.195312 C 18.9375 14.195312 14 19.132812 14 25.195312 C 14 31.257812 18.9375 36.195312 25 36.195312 C 31.0625 36.195312 36 31.257812 36 25.195312 C 36 19.132812 31.0625 14.195312 25 14.195312 Z M 25 16.195312 C 29.980469 16.195312 34 20.214844 34 25.195312 C 34 30.175781 29.980469 34.195312 25 34.195312 C 20.019531 34.195312 16 30.175781 16 25.195312 C 16 20.214844 20.019531 16.195312 25 16.195312 Z M 25 16.195312 "/>
</g>
</svg>
